PathFileType	4	(X/Y/Z)	69_1_5_p0_0-175.trc
DataRate	CameraRate	NumFrames	NumMarkers	Units	OrigDataRate	OrigDataStartFrame	OrigNumFrames
60.0	60.0	6	27	m	60.0	22	176
Frame#	Time	RHip			RKnee			RAnkle			RBigToe			RSmallToe			RHeel			LHip			LKnee			LAnkle			LBigToe			LSmallToe			LHeel			Neck			Head			Nose			RShoulder			RElbow			RWrist			RThumb			RIndex			RPinky			LShoulder			LElbow			LWrist			LThumb			LIndex			LPinky			
		X1	Y1	Z1	X2	Y2	Z2	X3	Y3	Z3	X4	Y4	Z4	X5	Y5	Z5	X6	Y6	Z6	X7	Y7	Z7	X8	Y8	Z8	X9	Y9	Z9	X10	Y10	Z10	X11	Y11	Z11	X12	Y12	Z12	X13	Y13	Z13	X14	Y14	Z14	X15	Y15	Z15	X16	Y16	Z16	X17	Y17	Z17	X18	Y18	Z18	X19	Y19	Z19	X20	Y20	Z20	X21	Y21	Z21	X22	Y22	Z22	X23	Y23	Z23	X24	Y24	Z24	X25	Y25	Z25	X26	Y26	Z26	X27	Y27	Z27	
22	0.36666666666666664	0.2760669495490259	0.5288896730345476	0.5011787825803161	0.25218492634014117	0.5362831082848937	0.9132560090652599	0.2263156979113284	0.5701858946348207	1.3125278043697741	0.25906964462270404	0.43031776478984574	1.3323927367011181	0.3175390582936104	0.46704631672047997	1.3275315580935072	0.18090138649737592	0.6702594756507312	1.3870937053295034	0.09286540110365764	0.48167101281655567	0.5119862536676865	0.05408475037170273	0.5128649347780434	0.9191508444538478	0.03140729074628715	0.5604312719110813	1.3273378959425601	0.10892392991331604	0.36035848439367707	1.2984738735024692	0.04087232164327445	0.4117672396292874	1.3191695215964454	0.03756842821651481	0.5858330764188973	1.3711139124102658	0.2139951149665052	0.511546940554855	-0.009370762730074098	0.2484442711093128	0.4691139374593628	-0.25979054305292015	0.2577092922286658	0.38882495389001415	-0.14110705898031276	0.36144267114656886	0.528526870930111	0.07168300747676525	0.3584822869652191	0.5186950301219103	0.31280940684868674	0.3117005188797035	0.35112987082049435	0.4681818724195358	0.26306451000473685	0.2700302930030627	0.5383886628462021	0.23859177534531414	0.2958193585601584	0.5791897588779568	0.22923910351582616	0.360680447337364	0.6034083522042386	0.06608550308194956	0.45770752042123625	0.055135392766904656	0.0619721904112251	0.40882511781080855	0.29520890242367837	0.16691085134332562	0.32178123431667105	0.4619758765671779	0.2489020351890502	0.30108365659864994	0.5234349277380058	0.24059859748035667	0.3007235194715465	0.5563625344041794	0.2214387027525603	0.2919278595945054	0.570738563991855
23	0.38333333333333336	0.2766852891828947	0.5289167961763261	0.49717307678308625	0.25116273569872244	0.5362318845493309	0.9172663389889191	0.2262858792435544	0.5702703882627003	1.3126229489900774	0.2605146416751414	0.41682939156795185	1.325066304014254	0.3175877539340157	0.4665776487870898	1.3275404666195116	0.1809427374708871	0.6731363039093097	1.3928350949791433	0.09297440736647034	0.4801576364952556	0.5067783903772097	0.053176239792933185	0.512511782157755	0.9227945215744384	0.031435922310722994	0.5604184912527579	1.327182909856426	0.10901119002882036	0.360148037933211	1.2982762787496944	0.04100954823660584	0.41158927465056044	1.3189182127080412	0.037429750399820445	0.5864180858073499	1.3713630253195743	0.21400904852644373	0.5115547958794892	-0.009431126635998243	0.2484463709740839	0.4691163318469106	-0.25978560273140044	0.2576120249862668	0.3888959060158116	-0.14114470674117277	0.3646164546996223	0.5307874879076943	0.07184656138526654	0.358538421473474	0.5186618284187622	0.31273608381754303	0.3117444675843065	0.35116948226789113	0.46811005658052923	0.2634476505226266	0.2697169001610006	0.5383195222297337	0.23934575570503352	0.2957481319105191	0.5758637617518584	0.23000047698937068	0.36079959857936117	0.6000918004269564	0.06958485093355488	0.46072298577672693	0.05213581551965917	0.06195204698408437	0.4088826661739375	0.29518594501753426	0.16685299393101227	0.3219397307354641	0.46202678667691083	0.2521986491811987	0.3049998891280978	0.5280564348093876	0.24059494934066195	0.3006844156845112	0.5563821609205849	0.22068813704695675	0.29178602229379136	0.5747074133525196
24	0.4	0.2753703551742328	0.5297809870490249	0.49769082036976486	0.2510828512923576	0.5364511736692559	0.9173236235413973	0.22462630910785966	0.5848881838667837	1.3198875687987395	0.2542367181241344	0.44522622694747366	1.3413503683372918	0.312980588072684	0.4807052891958631	1.3357100825912325	0.16999286288993487	0.6862224540445776	1.3968386008130664	0.09250415970212855	0.4810104941776691	0.5034702886657373	0.05316973291031506	0.5127674225676025	0.9227624340818377	0.03140407807323884	0.5604179429444227	1.326882320760188	0.10727268409184036	0.37276733983065624	1.3053730846900387	0.040998016965188254	0.4118592897701486	1.3191663868566044	0.037206442104795366	0.5866798843214966	1.371530989675886	0.21424973535852893	0.5118874761670634	-0.012676987233687563	0.25124984768139397	0.4720042311372582	-0.2597762842431657	0.2609083690837838	0.39213742212804614	-0.14109934410304606	0.36140164374958733	0.528723222461997	0.07165045652076166	0.3585230163183385	0.5187270454919327	0.3128032012787421	0.3117756176090073	0.35099559443259	0.4681063375100542	0.2633335119981636	0.2700389211551944	0.5384033176549134	0.23913217365606684	0.2961800385378096	0.5753109050998907	0.23020249738718435	0.3584983398820366	0.5986284892290867	0.06663562880342369	0.4571005610642573	0.04838201621418273	0.061969952777391576	0.4087242011903474	0.2950832746246547	0.1668729122601995	0.32164732276884206	0.4619964363128336	0.261065986154001	0.2940519224920196	0.5164286429921379	0.240599536640699	0.30069145641414746	0.5562977063769893	0.22121098786751964	0.2914986161772576	0.5705680670057216
25	0.4166666666666667	0.2750843938113591	0.5290213604567173	0.5053679932236725	0.2511159166978847	0.5363740142456419	0.9175107394404944	0.22477994467989915	0.5846779307398283	1.319894709992752	0.2558449001248315	0.43198816226070347	1.3340371806222489	0.31311661991697376	0.48042989193822766	1.3356206905229464	0.18050893366448048	0.6712754517038942	1.3874733532415608	0.09226726090884775	0.4800465529130376	0.5105148128051391	0.05316944449144608	0.5128912006825154	0.9229574643491	0.03069554436731353	0.5616888659853057	1.3231855370727175	0.10716200125840636	0.37295224728043563	1.3055039956182657	0.040858918912298745	0.4119707317765616	1.3192751526663025	0.038484378508189976	0.5865342431544642	1.3663921498493141	0.21425420775769205	0.511901147554833	-0.012749899014152953	0.2512663310417874	0.47198685021402703	-0.2597249959314445	0.260806782415146	0.39214821034569647	-0.14111736116178397	0.3614203123577157	0.5287660904698723	0.07165876321637447	0.3580984663509753	0.5185879077564464	0.31641305606518644	0.3117664265858245	0.3510321284328777	0.46813090714185357	0.26332231557703023	0.27038443949148755	0.5386800404033716	0.23722243974578805	0.30840791927403516	0.5825296497463386	0.23010788890812472	0.35886939293471926	0.5986942445027502	0.06665031858572368	0.4570678772001746	0.048379589164150597	0.06243051967153311	0.4090624267140724	0.2913786279595498	0.16687130611395645	0.3217470696366615	0.4620233458448535	0.2520564725119665	0.3155192854367605	0.5235803443198943	0.24057770949007953	0.30085973645040637	0.5564769123727256	0.22059306867875836	0.2912917756408898	0.5744779661758472
26	0.43333333333333335	0.27519048862311574	0.5287954338714944	0.5053036035119151	0.25018796331749593	0.5362501565676765	0.921482057431138	0.22604302917916258	0.57050611388495	1.3126853131559983	0.26300910183732873	0.433196770531245	1.3332057464741098	0.31303220669244314	0.4807445452055759	1.3357871305856663	0.180459604906439	0.6712910649323167	1.3875368713446106	0.09304584487708938	0.4801162371459886	0.5068516669694979	0.05325591531830762	0.5127328047983013	0.9228203409779736	0.03074240812630229	0.5616709713539887	1.3233243496683877	0.10725165245303303	0.37299527077283595	1.30550102415571	0.03990316472005661	0.411810759879423	1.322918684936444	0.037219443530550164	0.5866235700798983	1.3714365370026926	0.2178205837236349	0.5138622318778163	-0.012655776762933262	0.24845946790107748	0.4691768132939769	-0.25977044751255096	0.2575346785014457	0.3890317392755572	-0.14122054883900817	0.3646091735470026	0.5311215544701732	0.07181635583867621	0.3581155702866487	0.5186438120654313	0.31645948576870037	0.3117948582327236	0.3509926242996104	0.46809417916185436	0.2634341564182989	0.2702840488604074	0.5386894391932776	0.23797354420458272	0.3083763782594087	0.5793058440303714	0.23020716843064515	0.35881095986617495	0.5985010756694394	0.06636939067757532	0.4582222767081357	0.05173511383169304	0.06246354913876234	0.40908896095899666	0.2914080908661988	0.16680839802631403	0.32181960113298597	0.46207172359362325	0.26032351673678195	0.3054600905854508	0.5198655767196141	0.24062228319967288	0.3009113979158879	0.5563794516215189	0.22064656317892553	0.2915760356539111	0.5747048459732536
27	0.45	0.2752384373818193	0.5288203648612081	0.5052765304721027	0.24908709722945832	0.5501904336950717	0.9270282886179765	0.22598147489076184	0.5704109264335331	1.3125621973591224	0.2543719554453927	0.44541681790086735	1.3414065945854503	0.3130724569475398	0.48116988083733037	1.3358355743490762	0.18049481271308324	0.6705865321114646	1.387108262901295	0.09156523529023912	0.4936098895246376	0.5103360474276635	0.05340515537230581	0.5106476027963428	0.9172050826414766	0.031477708076885845	0.5603501779739097	1.3266574151869555	0.1071557505240535	0.37317895395615847	1.3057373303414623	0.038584447977566744	0.42533259123195366	1.3267190193793281	0.03719742707166382	0.5867916272756994	1.3715452677777007	0.2178066461533388	0.5138715136813997	-0.012660225868257003	0.2512623764998148	0.47194959224638083	-0.2598056991344517	0.2606933422115164	0.3931509535909157	-0.1379149427983498	0.36451564767158307	0.5311015140820401	0.07176911112615925	0.3580286407735102	0.5174666054045074	0.31220473562956014	0.3112860425055741	0.3625156156889526	0.4711540880487109	0.25531197208921963	0.27936144161673326	0.5420519109612972	0.23856080407719682	0.30722545130906925	0.5827511646121654	0.23038664703649867	0.3583252875052994	0.5985016598323867	0.06804062562848158	0.4729797248345581	0.050121725309503255	0.06252069758129637	0.40902354705562466	0.29130775029861533	0.1669132739497549	0.32163568539948967	0.4619219046517699	0.2510889483124072	0.3156461614236026	0.5275511073427088	0.23982866173594983	0.31256753327006975	0.5599874114063366	0.22170029319060702	0.29083272233541557	0.5734755690820387
